<svg width="216" height="48" viewBox="0 0 216 48" fill="none" xmlns="http://www.w3.org/2000/svg" role="img" aria-label="StudyMate">
  <rect width="48" height="48" rx="11" fill="#ffffff" fill-opacity="0.12"></rect>
  <rect x="0.5" y="0.5" width="47" height="47" rx="10.5" stroke="#ffffff" stroke-opacity="0.35"></rect>
  <path d="M24 16.5 C19 13.6 13.4 13.6 9.4 15.7 L9.4 32.2 C13.4 30.1 19 30.1 24 33 Z" fill="#ffffff"></path>
  <path d="M24 16.5 C29 13.6 34.6 13.6 38.6 15.7 L38.6 32.2 C34.6 30.1 29 30.1 24 33 Z" fill="#ffffff"></path>
  <path d="M24 16.5 L24 33" stroke="#003865" stroke-width="1.4" stroke-linecap="round"></path>
  <path d="M13 20.2 C16 19.4 19.4 19.6 21.4 20.4 M13 24.4 C16 23.6 19.4 23.8 21.4 24.6 M26.6 20.4 C28.6 19.6 32 19.4 35 20.2 M26.6 24.6 C28.6 23.8 32 23.6 35 24.4" stroke="#84b9da" stroke-width="1.1" stroke-linecap="round"></path>
  <path d="M21.4 11 L26.6 11 L26.6 22.4 L24 19.4 L21.4 22.4 Z" fill="#0075B0"></path>
  <text x="62" y="32" font-family="&#39;Noto Serif&#39;, Georgia, serif" font-size="25" font-weight="700" letter-spacing="-0.4" fill="#ffffff">Study<tspan fill="#84b9da">Mate</tspan></text>
</svg>